# xmcd
#
# Track frame offsets:
#	150
#	12771
#	24549
#	36949
#	48794
#	61194
#	74677
#	87134
#	100391
#	112634
#	122904
#	134457
#
# Disc length: 1946 seconds
#
# Revision: 0
# Processed by: cddbd v1.5.2PL0 Copyright (c) Steve Scherf et al.
# Submitted via: EasyCDDAExtractor 15.3.0.1
#
DISCID=9907980c
DTITLE=Bobby Bare - The Travelin' Bare
DYEAR=1964
DGENRE=Country
TTITLE0=Down In Mexico
TTITLE1=Sittin' And Thinkin'
TTITLE2=I've Lived A Lot In My Time
TTITLE3=I'm Gettin' Lonely
TTITLE4=Long Way To Tennessee
TTITLE5=Sweeter Than The Flowers
TTITLE6=I Was Coming Home To You
TTITLE7=Long Black Limousine
TTITLE8=Another Bridge To Burn
TTITLE9=Lonely Town
TTITLE10=Candy Coated Kisses
TTITLE11=When I'm Gone
EXTD=
EXTT0=
EXTT1=
EXTT2=
EXTT3=
EXTT4=
EXTT5=
EXTT6=
EXTT7=
EXTT8=
EXTT9=
EXTT10=
EXTT11=
PLAYORDER=
